<svg xmlns="http://www.w3.org/2000/svg" viewBox="0 0 1200 320" fill="none">
  <defs>
    <linearGradient id="bg" x1="0" y1="0" x2="1200" y2="320" gradientUnits="userSpaceOnUse">
      <stop offset="0%" stop-color="#0a0a12"/>
      <stop offset="100%" stop-color="#14141f"/>
    </linearGradient>
  </defs>
  <rect width="1200" height="320" fill="url(#bg)"/>
  <circle cx="1000" cy="80" r="120" fill="#a855f7" opacity="0.15"/>
  <circle cx="150" cy="280" r="80" fill="#0066ff" opacity="0.1"/>
  
  <rect x="80" y="60" width="500" height="200" rx="12" fill="#1a1a28" stroke="rgba(255,255,255,0.08)" stroke-width="1"/>
  <rect x="80" y="60" width="500" height="32" rx="12" fill="#111118"/>
  <rect x="80" y="80" width="500" height="12" fill="#1a1a28"/>
  <circle cx="98" cy="76" r="4" fill="#ef4444" opacity="0.7"/>
  <circle cx="112" cy="76" r="4" fill="#f59e0b" opacity="0.7"/>
  <circle cx="126" cy="76" r="4" fill="#22c55e" opacity="0.7"/>
  <text x="330" y="80" fill="#6b7280" font-family="system-ui,sans-serif" font-size="10" text-anchor="middle">Writing</text>
  
    <text x="330" y="130" fill="#e5e7eb" font-family="system-ui,sans-serif" font-size="22" font-weight="700" text-anchor="middle">Writing</text>
    <text x="330" y="160" fill="#6b7280" font-family="system-ui,sans-serif" font-size="13" text-anchor="middle">Resumes, blogs & copy</text>
    <rect x="230" y="180" width="200" height="32" rx="8" fill="#a855f7" opacity="0.25" stroke="#a855f7"/>
    <text x="330" y="201" fill="#a855f7" font-family="system-ui,sans-serif" font-size="12" text-anchor="middle" font-weight="600">Explore tools →</text>
  
  <rect x="650" y="80" width="480" height="180" rx="12" fill="#1a1a28" stroke="rgba(255,255,255,0.08)" opacity="0.8"/>
  <rect x="670" y="110" width="200" height="120" rx="8" fill="#a855f7" opacity="0.15"/>
  <rect x="890" y="110" width="220" height="50" rx="6" fill="#1f2937"/>
  <rect x="890" y="170" width="180" height="50" rx="6" fill="#1f2937"/>
</svg>
