<svg xmlns="http://www.w3.org/2000/svg" viewBox="0 0 40 40" fill="none">
  <defs>
    <linearGradient id="sp-gradient" x1="4" y1="4" x2="36" y2="36" gradientUnits="userSpaceOnUse">
      <stop stop-color="#22d3ee"/>
      <stop offset="0.45" stop-color="#0066ff"/>
      <stop offset="1" stop-color="#a855f7"/>
    </linearGradient>
    <linearGradient id="sp-shine" x1="8" y1="6" x2="28" y2="18" gradientUnits="userSpaceOnUse">
      <stop stop-color="#ffffff" stop-opacity="0.45"/>
      <stop offset="1" stop-color="#ffffff" stop-opacity="0"/>
    </linearGradient>
  </defs>
  <rect width="40" height="40" rx="10" fill="url(#sp-gradient)"/>
  <path
    d="M26.5 11.5c-2.2 0-4.1 1.1-5.2 2.8-.6-.9-1.6-1.5-2.8-1.5-1.8 0-3.3 1.5-3.3 3.3 0 .5.1 1 .3 1.4-1.5.8-2.5 2.4-2.5 4.2 0 2.6 2.1 4.7 4.7 4.7h1.2c2.4 0 4.4-1.7 4.8-4 .8.4 1.7.6 2.6.6 2.8 0 5-2.2 5-5s-2.2-5-5-5Z"
    fill="white"
    fill-opacity="0.95"
  />
  <path
    d="M13 10.5c-.8 0-1.5.7-1.5 1.5v.2c-.9.5-1.5 1.5-1.5 2.6v8.2c0 1.7 1.3 3 3 3h.8"
    stroke="white"
    stroke-width="2.2"
    stroke-linecap="round"
    fill="none"
  />
  <circle cx="12" cy="11" r="1.1" fill="white"/>
  <circle cx="15.5" cy="8.5" r="0.8" fill="white" fill-opacity="0.85"/>
  <circle cx="18" cy="10" r="0.55" fill="white" fill-opacity="0.7"/>
  <ellipse cx="14" cy="12" rx="8" ry="4" fill="url(#sp-shine)"/>
</svg>
