<svg xmlns="http://www.w3.org/2000/svg" viewBox="0 0 600 375" fill="none">
  <defs>
    <linearGradient id="bg" x1="0" y1="0" x2="600" y2="375" gradientUnits="userSpaceOnUse">
      <stop offset="0%" stop-color="#0a0a12"/>
      <stop offset="100%" stop-color="#14141f"/>
    </linearGradient>
    <linearGradient id="accent" x1="0" y1="0" x2="1" y2="1">
      <stop offset="0%" stop-color="#0ea5e9" stop-opacity="0.35"/>
      <stop offset="100%" stop-color="#0066ff" stop-opacity="0.15"/>
    </linearGradient>
    <filter id="glow" x="-20%" y="-20%" width="140%" height="140%">
      <feGaussianBlur stdDeviation="8" result="blur"/>
      <feMerge><feMergeNode in="blur"/><feMergeNode in="SourceGraphic"/></feMerge>
    </filter>
  </defs>
  <rect width="600" height="375" fill="url(#bg)"/>
  <circle cx="520" cy="60" r="80" fill="#0ea5e9" opacity="0.12"/>
  <circle cx="80" cy="320" r="60" fill="#0066ff" opacity="0.08"/>
  
  
  <rect x="40" y="50" width="520" height="270" rx="12" fill="#1a1a28" stroke="rgba(255,255,255,0.08)" stroke-width="1"/>
  <rect x="40" y="50" width="520" height="32" rx="12" fill="#111118"/>
  <rect x="40" y="70" width="520" height="12" fill="#1a1a28"/>
  <circle cx="58" cy="66" r="4" fill="#ef4444" opacity="0.7"/>
  <circle cx="72" cy="66" r="4" fill="#f59e0b" opacity="0.7"/>
  <circle cx="86" cy="66" r="4" fill="#22c55e" opacity="0.7"/>
  <text x="300" y="70" fill="#6b7280" font-family="system-ui,sans-serif" font-size="10" text-anchor="middle">Proposal Generator</text>
  
    <rect x="160" y="70" width="280" height="240" rx="6" fill="white" opacity="0.95"/>
    <rect x="160" y="70" width="280" height="36" rx="6" fill="#0066ff" opacity="0.9"/>
    <text x="300" y="94" fill="white" font-family="system-ui,sans-serif" font-size="13" font-weight="600" text-anchor="middle">Client Proposal</text>
    <text x="180" y="130" fill="#374151" font-family="system-ui,sans-serif" font-size="10" font-weight="600">Executive Summary</text>
    <rect x="180" y="140" width="240" height="5" rx="2" fill="#e5e7eb"/>
    <rect x="180" y="152" width="200" height="5" rx="2" fill="#e5e7eb"/>
    <text x="180" y="180" fill="#374151" font-family="system-ui,sans-serif" font-size="10" font-weight="600">Scope &amp; Timeline</text>
    <rect x="180" y="190" width="110" height="50" rx="4" fill="#f3f4f6"/>
    <text x="235" y="218" fill="#22c55e" font-family="system-ui,sans-serif" font-size="12" font-weight="700" text-anchor="middle">$8,500</text>
    <rect x="300" y="190" width="120" height="50" rx="4" fill="#f3f4f6"/>
    <text x="360" y="218" fill="#0066ff" font-family="system-ui,sans-serif" font-size="10" text-anchor="middle">6 weeks</text>
  
  <rect x="0" y="340" width="600" height="35" fill="black" opacity="0.3"/>
  <text x="24" y="362" fill="#6b7280" font-family="system-ui,sans-serif" font-size="11" font-weight="500">SolePrompt</text>
</svg>
