<svg xmlns="http://www.w3.org/2000/svg" viewBox="0 0 600 375" fill="none">
  <defs>
    <linearGradient id="bg" x1="0" y1="0" x2="600" y2="375" gradientUnits="userSpaceOnUse">
      <stop offset="0%" stop-color="#0a0a12"/>
      <stop offset="100%" stop-color="#14141f"/>
    </linearGradient>
    <linearGradient id="accent" x1="0" y1="0" x2="1" y2="1">
      <stop offset="0%" stop-color="#6366f1" stop-opacity="0.35"/>
      <stop offset="100%" stop-color="#0066ff" stop-opacity="0.15"/>
    </linearGradient>
    <filter id="glow" x="-20%" y="-20%" width="140%" height="140%">
      <feGaussianBlur stdDeviation="8" result="blur"/>
      <feMerge><feMergeNode in="blur"/><feMergeNode in="SourceGraphic"/></feMerge>
    </filter>
  </defs>
  <rect width="600" height="375" fill="url(#bg)"/>
  <circle cx="520" cy="60" r="80" fill="#6366f1" opacity="0.12"/>
  <circle cx="80" cy="320" r="60" fill="#0066ff" opacity="0.08"/>
  
  <text x="300" y="85" fill="#e5e7eb" font-family="system-ui,sans-serif" font-size="16" font-weight="600" text-anchor="middle">Productivity Power Pack</text>
  <text x="300" y="105" fill="#6b7280" font-family="system-ui,sans-serif" font-size="11" text-anchor="middle">10 prompts · Planning &amp; focus</text>
  <rect x="70" y="120" width="140" height="50" rx="8" fill="#1a1a28" stroke="rgba(255,255,255,0.08)"/><text x="140" y="150" fill="#e5e7eb" font-family="system-ui,sans-serif" font-size="10" text-anchor="middle">Daily Plan</text><rect x="225" y="120" width="140" height="50" rx="8" fill="#1a1a28" stroke="rgba(255,255,255,0.08)"/><text x="295" y="150" fill="#e5e7eb" font-family="system-ui,sans-serif" font-size="10" text-anchor="middle">Weekly Plan</text><rect x="380" y="120" width="140" height="50" rx="8" fill="#1a1a28" stroke="rgba(255,255,255,0.08)"/><text x="450" y="150" fill="#e5e7eb" font-family="system-ui,sans-serif" font-size="10" text-anchor="middle">Focus</text><rect x="70" y="185" width="140" height="50" rx="8" fill="#1a1a28" stroke="rgba(255,255,255,0.08)"/><text x="140" y="215" fill="#e5e7eb" font-family="system-ui,sans-serif" font-size="10" text-anchor="middle">Habits</text><rect x="225" y="185" width="140" height="50" rx="8" fill="#1a1a28" stroke="rgba(255,255,255,0.08)"/><text x="295" y="215" fill="#e5e7eb" font-family="system-ui,sans-serif" font-size="10" text-anchor="middle">Inbox Zero</text><rect x="380" y="185" width="140" height="50" rx="8" fill="#1a1a28" stroke="rgba(255,255,255,0.08)"/><text x="450" y="215" fill="#e5e7eb" font-family="system-ui,sans-serif" font-size="10" text-anchor="middle">Goals</text>
  <rect x="200" y="265" width="200" height="30" rx="14" fill="#6366f1" opacity="0.2" stroke="#6366f1"/>
  <text x="300" y="285" fill="#6366f1" font-family="system-ui,sans-serif" font-size="11" text-anchor="middle" font-weight="600">10 Tools Included</text>
  <rect x="0" y="340" width="600" height="35" fill="black" opacity="0.3"/>
  <text x="24" y="362" fill="#6b7280" font-family="system-ui,sans-serif" font-size="11" font-weight="500">SolePrompt</text>
</svg>
