<svg xmlns="http://www.w3.org/2000/svg" viewBox="0 0 600 375" fill="none">
  <defs>
    <linearGradient id="bg" x1="0" y1="0" x2="600" y2="375" gradientUnits="userSpaceOnUse">
      <stop offset="0%" stop-color="#0a0a12"/>
      <stop offset="100%" stop-color="#14141f"/>
    </linearGradient>
    <linearGradient id="accent" x1="0" y1="0" x2="1" y2="1">
      <stop offset="0%" stop-color="#a855f7" stop-opacity="0.35"/>
      <stop offset="100%" stop-color="#0066ff" stop-opacity="0.15"/>
    </linearGradient>
    <filter id="glow" x="-20%" y="-20%" width="140%" height="140%">
      <feGaussianBlur stdDeviation="8" result="blur"/>
      <feMerge><feMergeNode in="blur"/><feMergeNode in="SourceGraphic"/></feMerge>
    </filter>
  </defs>
  <rect width="600" height="375" fill="url(#bg)"/>
  <circle cx="520" cy="60" r="80" fill="#a855f7" opacity="0.12"/>
  <circle cx="80" cy="320" r="60" fill="#0066ff" opacity="0.08"/>
  
  
  <rect x="40" y="50" width="520" height="270" rx="12" fill="#1a1a28" stroke="rgba(255,255,255,0.08)" stroke-width="1"/>
  <rect x="40" y="50" width="520" height="32" rx="12" fill="#111118"/>
  <rect x="40" y="70" width="520" height="12" fill="#1a1a28"/>
  <circle cx="58" cy="66" r="4" fill="#ef4444" opacity="0.7"/>
  <circle cx="72" cy="66" r="4" fill="#f59e0b" opacity="0.7"/>
  <circle cx="86" cy="66" r="4" fill="#22c55e" opacity="0.7"/>
  <text x="300" y="70" fill="#6b7280" font-family="system-ui,sans-serif" font-size="10" text-anchor="middle">Resume Optimizer</text>
  
    <text x="70" y="105" fill="#6b7280" font-family="system-ui,sans-serif" font-size="10">Before</text>
    <rect x="70" y="112" width="200" height="50" rx="6" fill="#1f2937" stroke="rgba(255,255,255,0.08)"/>
    <text x="80" y="132" fill="#9ca3af" font-family="system-ui,sans-serif" font-size="9">• Managed team projects</text>
    <text x="80" y="148" fill="#9ca3af" font-family="system-ui,sans-serif" font-size="9">• Did sales tasks</text>
    <text x="300" y="105" fill="#22c55e" font-family="system-ui,sans-serif" font-size="10">After</text>
    <rect x="300" y="112" width="220" height="50" rx="6" fill="#22c55e" opacity="0.1" stroke="#22c55e" stroke-width="1"/>
    <text x="310" y="132" fill="#e5e7eb" font-family="system-ui,sans-serif" font-size="9">• Led 12-person team, +34% revenue</text>
    <text x="310" y="148" fill="#e5e7eb" font-family="system-ui,sans-serif" font-size="9">• Closed $2.1M in enterprise deals</text>
    <rect x="70" y="180" width="450" height="60" rx="8" fill="#1a1a28" stroke="rgba(255,255,255,0.08)"/>
    <text x="85" y="200" fill="#6b7280" font-family="system-ui,sans-serif" font-size="10">ATS Keywords</text>
    <rect x="85" y="210" width="70" height="20" rx="10" fill="#0066ff" opacity="0.2"/><text x="120" y="224" fill="#0066ff" font-family="system-ui,sans-serif" font-size="9" text-anchor="middle">leadership</text>
    <rect x="165" y="210" width="55" height="20" rx="10" fill="#0066ff" opacity="0.2"/><text x="192" y="224" fill="#0066ff" font-family="system-ui,sans-serif" font-size="9" text-anchor="middle">KPIs</text>
    <rect x="230" y="210" width="80" height="20" rx="10" fill="#0066ff" opacity="0.2"/><text x="270" y="224" fill="#0066ff" font-family="system-ui,sans-serif" font-size="9" text-anchor="middle">stakeholder</text>
    <rect x="70" y="255" width="180" height="30" rx="6" fill="#a855f7" opacity="0.2" stroke="#a855f7"/>
    <text x="160" y="275" fill="#a855f7" font-family="system-ui,sans-serif" font-size="11" text-anchor="middle" font-weight="600">Optimize Bullets</text>
  
  <rect x="0" y="340" width="600" height="35" fill="black" opacity="0.3"/>
  <text x="24" y="362" fill="#6b7280" font-family="system-ui,sans-serif" font-size="11" font-weight="500">SolePrompt</text>
</svg>
