<svg xmlns="http://www.w3.org/2000/svg" viewBox="0 0 600 375" fill="none">
  <defs>
    <linearGradient id="bg" x1="0" y1="0" x2="600" y2="375" gradientUnits="userSpaceOnUse">
      <stop offset="0%" stop-color="#0a0a12"/>
      <stop offset="100%" stop-color="#14141f"/>
    </linearGradient>
    <linearGradient id="accent" x1="0" y1="0" x2="1" y2="1">
      <stop offset="0%" stop-color="#f59e0b" stop-opacity="0.35"/>
      <stop offset="100%" stop-color="#0066ff" stop-opacity="0.15"/>
    </linearGradient>
    <filter id="glow" x="-20%" y="-20%" width="140%" height="140%">
      <feGaussianBlur stdDeviation="8" result="blur"/>
      <feMerge><feMergeNode in="blur"/><feMergeNode in="SourceGraphic"/></feMerge>
    </filter>
  </defs>
  <rect width="600" height="375" fill="url(#bg)"/>
  <circle cx="520" cy="60" r="80" fill="#f59e0b" opacity="0.12"/>
  <circle cx="80" cy="320" r="60" fill="#0066ff" opacity="0.08"/>
  
  <rect x="160" y="60" width="280" height="260" rx="8" fill="white" opacity="0.95"/>
  <rect x="160" y="60" width="280" height="40" rx="8" fill="#f59e0b" opacity="0.9"/>
  <rect x="160" y="88" width="280" height="12" fill="#f59e0b" opacity="0.9"/>
  <text x="300" y="86" fill="white" font-family="system-ui,sans-serif" font-size="13" font-weight="600" text-anchor="middle">Solar Proposal</text>
  <rect x="180" y="115" width="240" height="8" rx="2" fill="#e5e7eb"/>
  <rect x="180" y="130" width="200" height="6" rx="2" fill="#e5e7eb"/>
  <rect x="180" y="145" width="220" height="6" rx="2" fill="#e5e7eb"/>
  <rect x="180" y="170" width="110" height="70" rx="6" fill="#f3f4f6"/>
  <text x="235" y="200" fill="#374151" font-family="system-ui,sans-serif" font-size="9" text-anchor="middle">ROI Summary</text>
  <text x="235" y="218" fill="#22c55e" font-family="system-ui,sans-serif" font-size="14" font-weight="700" text-anchor="middle">$42k</text>
  <rect x="300" y="170" width="120" height="70" rx="6" fill="#f3f4f6"/>
  <polyline points="310,220 330,200 350,205 370,185 400,175" stroke="#0066ff" stroke-width="2" fill="none"/>
  <rect x="180" y="255" width="240" height="40" rx="6" fill="#0066ff" opacity="0.15"/>
  <text x="300" y="280" fill="#0066ff" font-family="system-ui,sans-serif" font-size="11" text-anchor="middle" font-weight="600">7 Proposal Templates</text>
  <rect x="60" y="120" width="80" height="100" rx="6" fill="#1a1a28" stroke="rgba(255,255,255,0.08)" transform="rotate(-8 100 170)"/>
  <rect x="460" y="120" width="80" height="100" rx="6" fill="#1a1a28" stroke="rgba(255,255,255,0.08)" transform="rotate(8 500 170)"/>
  <rect x="0" y="340" width="600" height="35" fill="black" opacity="0.3"/>
  <text x="24" y="362" fill="#6b7280" font-family="system-ui,sans-serif" font-size="11" font-weight="500">SolePrompt</text>
</svg>
