<svg xmlns="http://www.w3.org/2000/svg" viewBox="0 0 600 375" fill="none">
  <defs>
    <linearGradient id="bg" x1="0" y1="0" x2="600" y2="375" gradientUnits="userSpaceOnUse">
      <stop offset="0%" stop-color="#0a0a12"/>
      <stop offset="100%" stop-color="#14141f"/>
    </linearGradient>
    <linearGradient id="accent" x1="0" y1="0" x2="1" y2="1">
      <stop offset="0%" stop-color="#f59e0b" stop-opacity="0.35"/>
      <stop offset="100%" stop-color="#0066ff" stop-opacity="0.15"/>
    </linearGradient>
    <filter id="glow" x="-20%" y="-20%" width="140%" height="140%">
      <feGaussianBlur stdDeviation="8" result="blur"/>
      <feMerge><feMergeNode in="blur"/><feMergeNode in="SourceGraphic"/></feMerge>
    </filter>
  </defs>
  <rect width="600" height="375" fill="url(#bg)"/>
  <circle cx="520" cy="60" r="80" fill="#f59e0b" opacity="0.12"/>
  <circle cx="80" cy="320" r="60" fill="#0066ff" opacity="0.08"/>
  
  
  <rect x="40" y="50" width="520" height="270" rx="12" fill="#1a1a28" stroke="rgba(255,255,255,0.08)" stroke-width="1"/>
  <rect x="40" y="50" width="520" height="32" rx="12" fill="#111118"/>
  <rect x="40" y="70" width="520" height="12" fill="#1a1a28"/>
  <circle cx="58" cy="66" r="4" fill="#ef4444" opacity="0.7"/>
  <circle cx="72" cy="66" r="4" fill="#f59e0b" opacity="0.7"/>
  <circle cx="86" cy="66" r="4" fill="#22c55e" opacity="0.7"/>
  <text x="300" y="70" fill="#6b7280" font-family="system-ui,sans-serif" font-size="10" text-anchor="middle">Lead Qualifier Script</text>
  
    <circle cx="90" cy="115" r="20" fill="#0066ff" opacity="0.2" stroke="#0066ff" stroke-width="1.5"/>
    <path d="M85 115 L88 118 L95 110" stroke="#0066ff" stroke-width="2" fill="none" stroke-linecap="round"/>
    <text x="120" y="112" fill="#e5e7eb" font-family="system-ui,sans-serif" font-size="13" font-weight="500">Roof age &amp; condition?</text>
    <text x="120" y="130" fill="#6b7280" font-family="system-ui,sans-serif" font-size="10">Qualification checklist</text>
    <line x1="70" y1="145" x2="530" y2="145" stroke="rgba(255,255,255,0.08)"/>
    <circle cx="90" cy="170" r="20" fill="#22c55e" opacity="0.15" stroke="#22c55e" stroke-width="1.5"/>
    <path d="M85 170 L88 173 L95 165" stroke="#22c55e" stroke-width="2" fill="none"/>
    <text x="120" y="167" fill="#e5e7eb" font-family="system-ui,sans-serif" font-size="13">Monthly bill over $100?</text>
    <text x="120" y="185" fill="#22c55e" font-family="system-ui,sans-serif" font-size="10">Green light ✓</text>
    <circle cx="90" cy="220" r="20" fill="#1f2937" stroke="rgba(255,255,255,0.08)" stroke-width="1.5"/>
    <text x="90" y="225" fill="#6b7280" font-family="system-ui,sans-serif" font-size="14" text-anchor="middle">3</text>
    <text x="120" y="217" fill="#e5e7eb" font-family="system-ui,sans-serif" font-size="13">Homeowner &amp; timeline?</text>
    <rect x="70" y="250" width="460" height="36" rx="8" fill="#0066ff" opacity="0.15" stroke="#0066ff" stroke-width="1"/>
    <text x="300" y="273" fill="#0066ff" font-family="system-ui,sans-serif" font-size="12" text-anchor="middle" font-weight="600">📞 60-sec opener script</text>
  
  <rect x="0" y="340" width="600" height="35" fill="black" opacity="0.3"/>
  <text x="24" y="362" fill="#6b7280" font-family="system-ui,sans-serif" font-size="11" font-weight="500">SolePrompt</text>
</svg>
