<svg xmlns="http://www.w3.org/2000/svg" viewBox="0 0 600 375" fill="none">
  <defs>
    <linearGradient id="bg" x1="0" y1="0" x2="600" y2="375" gradientUnits="userSpaceOnUse">
      <stop offset="0%" stop-color="#0a0a12"/>
      <stop offset="100%" stop-color="#14141f"/>
    </linearGradient>
    <linearGradient id="accent" x1="0" y1="0" x2="1" y2="1">
      <stop offset="0%" stop-color="#ec4899" stop-opacity="0.35"/>
      <stop offset="100%" stop-color="#0066ff" stop-opacity="0.15"/>
    </linearGradient>
    <filter id="glow" x="-20%" y="-20%" width="140%" height="140%">
      <feGaussianBlur stdDeviation="8" result="blur"/>
      <feMerge><feMergeNode in="blur"/><feMergeNode in="SourceGraphic"/></feMerge>
    </filter>
  </defs>
  <rect width="600" height="375" fill="url(#bg)"/>
  <circle cx="520" cy="60" r="80" fill="#ec4899" opacity="0.12"/>
  <circle cx="80" cy="320" r="60" fill="#0066ff" opacity="0.08"/>
  
  
  <rect x="40" y="50" width="520" height="270" rx="12" fill="#1a1a28" stroke="rgba(255,255,255,0.08)" stroke-width="1"/>
  <rect x="40" y="50" width="520" height="32" rx="12" fill="#111118"/>
  <rect x="40" y="70" width="520" height="12" fill="#1a1a28"/>
  <circle cx="58" cy="66" r="4" fill="#ef4444" opacity="0.7"/>
  <circle cx="72" cy="66" r="4" fill="#f59e0b" opacity="0.7"/>
  <circle cx="86" cy="66" r="4" fill="#22c55e" opacity="0.7"/>
  <text x="300" y="70" fill="#6b7280" font-family="system-ui,sans-serif" font-size="10" text-anchor="middle">Classroom AI Pack</text>
  
    <rect x="70" y="100" width="200" height="90" rx="8" fill="#1f2937" stroke="rgba(255,255,255,0.08)"/>
    <text x="85" y="125" fill="#ec4899" font-family="system-ui,sans-serif" font-size="10" font-weight="600">Lesson Plan</text>
    <text x="85" y="145" fill="#6b7280" font-family="system-ui,sans-serif" font-size="9">Objectives · Activities · Assessment</text>
    <rect x="290" y="100" width="240" height="90" rx="8" fill="#1f2937" stroke="rgba(255,255,255,0.08)"/>
    <text x="305" y="125" fill="#ec4899" font-family="system-ui,sans-serif" font-size="10" font-weight="600">Quiz Generator</text>
    <text x="305" y="145" fill="#6b7280" font-family="system-ui,sans-serif" font-size="9">10 questions · Answer key · Rubric</text>
    <rect x="70" y="205" width="460" height="45" rx="8" fill="#ec4899" opacity="0.12" stroke="#ec4899"/>
    <text x="300" y="233" fill="#ec4899" font-family="system-ui,sans-serif" font-size="11" text-anchor="middle" font-weight="600">8 teaching tools for K-12 &amp; higher ed</text>
  
  <rect x="0" y="340" width="600" height="35" fill="black" opacity="0.3"/>
  <text x="24" y="362" fill="#6b7280" font-family="system-ui,sans-serif" font-size="11" font-weight="500">SolePrompt</text>
</svg>
